<?xml version="1.0" encoding="UTF-8"?>
<svg xmlns="http://www.w3.org/2000/svg" xmlns:xlink="http://www.w3.org/1999/xlink" width="384pt" height="383.999986pt"
     viewBox="0 0 384 383.999986" version="1.2">
    <defs>
        <clipPath id="clip1">
            <path d="M 0 76.847656 L 384 76.847656 L 384 307.03125 L 0 307.03125 Z M 0 76.847656 "/>
        </clipPath>
    </defs>
    <g id="surface1">
        <path style=" stroke:none;fill-rule:nonzero;fill:rgb(83.139038%,40.388489%,29.798889%);fill-opacity:1;"
              d="M 76.363281 173.574219 L 52.046875 197.875 L 39.878906 185.71875 C 37.199219 183.042969 32.863281 183.042969 30.183594 185.71875 C 27.503906 188.398438 27.503906 192.730469 30.183594 195.410156 L 47.195312 212.410156 C 48.539062 213.753906 50.292969 214.417969 52.046875 214.417969 C 53.800781 214.417969 55.554688 213.753906 56.890625 212.410156 L 86.058594 183.261719 C 88.738281 180.589844 88.738281 176.25 86.058594 173.574219 C 83.378906 170.898438 79.042969 170.898438 76.363281 173.574219 "/>
        <path style=" stroke:none;fill-rule:nonzero;fill:rgb(83.139038%,40.388489%,29.798889%);fill-opacity:1;"
              d="M 348.953125 168.871094 C 346.277344 166.195312 341.9375 166.195312 339.257812 168.871094 L 325.878906 182.242188 L 312.5 168.871094 C 309.820312 166.195312 305.484375 166.195312 302.804688 168.871094 C 300.125 171.550781 300.125 175.882812 302.804688 178.5625 L 316.183594 191.9375 L 302.804688 205.308594 C 300.125 207.984375 300.125 212.320312 302.804688 215 C 304.140625 216.339844 305.894531 217.007812 307.652344 217.007812 C 309.402344 217.007812 311.164062 216.339844 312.5 215 L 325.878906 201.625 L 339.257812 215 C 340.601562 216.339844 342.355469 217.007812 344.109375 217.007812 C 345.863281 217.007812 347.617188 216.339844 348.953125 215 C 351.632812 212.320312 351.632812 207.984375 348.953125 205.308594 L 335.574219 191.9375 L 348.953125 178.5625 C 351.632812 175.882812 351.632812 171.550781 348.953125 168.871094 "/>
        <g clip-path="url(#clip1)" clip-rule="nonzero">
            <path style=" stroke:none;fill-rule:nonzero;fill:rgb(83.139038%,40.388489%,29.798889%);fill-opacity:1;"
                  d="M 325.878906 231.75 C 303.910156 231.75 286.039062 213.890625 286.039062 191.9375 C 286.039062 169.988281 303.910156 152.128906 325.878906 152.128906 C 347.847656 152.128906 365.710938 169.988281 365.710938 191.9375 C 365.710938 213.890625 347.847656 231.75 325.878906 231.75 Z M 223.960938 215.53125 C 219.382812 218.925781 215.433594 221.851562 213.320312 224.816406 C 213.203125 225 212.128906 227.042969 211.765625 239.179688 C 211.652344 243.269531 208.355469 246.472656 204.257812 246.472656 L 178.984375 246.472656 C 174.835938 246.472656 171.472656 243.105469 171.472656 238.964844 L 171.472656 217.449219 C 171.472656 201.980469 184.695312 194.847656 193.449219 190.125 C 206.152344 183.273438 210.671875 179.578125 210.671875 172.5 C 210.671875 161.734375 202.105469 152.96875 191.574219 152.96875 C 182.621094 152.96875 174.886719 158.027344 168.582031 168.007812 C 167.148438 170.285156 164.238281 171.023438 161.949219 169.707031 L 135.617188 154.632812 C 134.457031 153.976562 133.605469 152.851562 133.269531 151.558594 C 132.9375 150.253906 133.132812 148.914062 133.828125 147.769531 C 147.628906 125.207031 168.136719 112.78125 191.574219 112.78125 C 224.277344 112.78125 250.882812 139.570312 250.882812 172.5 C 250.882812 195.570312 235.320312 207.105469 223.960938 215.53125 Z M 58.121094 231.75 C 36.160156 231.75 18.289062 213.890625 18.289062 191.9375 C 18.289062 169.988281 36.160156 152.128906 58.121094 152.128906 C 80.085938 152.128906 97.957031 169.988281 97.957031 191.9375 C 97.957031 213.890625 80.085938 231.75 58.121094 231.75 Z M 325.878906 133.851562 C 314.960938 133.851562 304.777344 136.933594 296.042969 142.183594 C 276.957031 102.75 236.3125 76.84375 192 76.84375 C 147.683594 76.84375 107.042969 102.75 87.957031 142.183594 C 79.226562 136.933594 69.039062 133.851562 58.121094 133.851562 C 26.070312 133.851562 0 159.90625 0 191.9375 C 0 223.96875 26.070312 250.023438 58.121094 250.023438 C 68.9375 250.023438 79.042969 247 87.726562 241.835938 C 104.746094 277.691406 138.789062 302.3125 178.703125 306.886719 C 179.742188 306.996094 180.738281 306.398438 181.105469 305.421875 C 181.476562 304.4375 181.125 303.335938 180.257812 302.734375 C 174.828125 298.996094 171.582031 292.847656 171.582031 286.269531 C 171.582031 275.257812 180.554688 266.296875 191.574219 266.296875 C 202.601562 266.296875 211.566406 275.257812 211.566406 286.269531 C 211.566406 292.929688 208.261719 299.128906 202.730469 302.851562 C 201.859375 303.4375 201.496094 304.542969 201.859375 305.53125 C 202.1875 306.4375 203.054688 307.03125 204.003906 307.03125 C 204.082031 307.03125 204.167969 307.027344 204.246094 307.019531 C 243.992188 302.835938 279.132812 277.613281 296.261719 241.828125 C 304.949219 246.996094 315.054688 250.023438 325.878906 250.023438 C 357.929688 250.023438 384 223.96875 384 191.9375 C 384 159.90625 357.929688 133.851562 325.878906 133.851562 "/>
        </g>
    </g>
</svg>
